<svg width="512" height="512" viewBox="0 0 512 512" fill="none" xmlns="http://www.w3.org/2000/svg">
<path d="M104.098 385.165H78.0173C66.2962 385.165 60.8127 379.75 60.8127 368.166C60.7784 338.521 60.7441 308.875 60.7441 279.196C60.7441 207.533 60.7784 135.87 60.8127 64.2072C60.8127 51.6294 66.1934 46.2487 78.737 46.2487L101.288 46.2144C122.879 46.1801 144.471 46.1458 166.062 46.2144C191.869 46.3172 212.775 52.7261 230.048 65.818C253.079 83.2967 265.76 106.944 267.713 136.076C268.604 149.202 268.398 162.328 268.227 175.043C268.124 181.589 268.021 188.341 268.09 194.921V208.116C268.09 223.127 268.09 238.138 268.124 253.149C268.159 258.495 266.205 263.156 262.298 266.995C251.331 277.791 240.398 288.621 229.431 299.416C209.622 318.986 189.161 339.24 168.872 359.015C151.154 376.391 129.322 385.165 104.098 385.165ZM84.7688 361.174H104.064C123.119 361.174 138.816 354.868 152.113 341.879C172.334 322.139 192.794 301.952 212.535 282.383C223.057 271.999 233.544 261.614 244.065 251.23C244.031 236.835 244.031 222.475 244.031 208.116V195.092C243.962 188.238 244.065 181.383 244.168 174.7C244.339 161.917 244.545 149.853 243.723 137.686C242.249 115.478 232.995 98.2051 215.482 84.9418C202.356 74.9686 186.591 70.3076 165.891 70.2048C144.334 70.102 122.777 70.1363 101.254 70.2048L84.8031 70.2391C84.7688 139.88 84.7346 209.555 84.7346 279.23C84.7346 306.545 84.7688 333.86 84.7688 361.174Z" fill="#DFFF03"/>
<path d="M435.337 466.082C435.235 466.082 435.132 466.082 435.029 466.082C419.709 466.013 404.39 466.013 389.07 466.013C374.505 466.013 359.973 466.013 345.408 465.945C318.298 465.808 296.364 458.268 278.303 442.846C259.179 426.532 248.006 405.181 245.093 379.374C244.374 373.17 244.339 367.139 244.339 361.004V341.195C244.339 314.805 244.374 288.416 244.339 262.061C244.339 255.72 246.499 250.545 250.92 246.227C263.12 234.334 275.253 222.373 287.385 210.413C297.872 200.097 308.325 189.747 318.847 179.465C321.349 177.032 323.782 174.53 326.215 172.062C333.138 165.036 340.267 157.736 348.698 151.43C366.519 138.03 386.466 131.21 407.954 131.141C410.867 131.141 413.815 131.141 416.728 131.141C423 131.141 429.237 131.176 435.509 131.073C440.17 130.97 443.905 132.341 446.75 135.151C451.034 139.367 451 144.679 451 146.427C450.931 187.519 450.931 228.645 450.931 269.737V322.619C450.931 365.082 450.931 407.511 451 449.974C451 452.03 451 457.445 446.682 461.764C442.603 465.911 437.394 466.082 435.337 466.082ZM401.922 442.023C410.285 442.023 418.681 442.023 427.044 442.057C426.975 402.13 426.975 362.375 426.975 322.653V298.56V269.772C426.975 231.558 426.975 193.379 427.009 155.166C423.582 155.166 420.121 155.166 416.659 155.166C413.78 155.166 410.901 155.166 407.988 155.166C391.572 155.2 376.869 160.238 363.092 170.623C356.135 175.866 349.897 182.207 343.317 188.89C340.747 191.494 338.21 194.099 335.606 196.635C325.119 206.883 314.666 217.198 304.213 227.48C292.252 239.27 280.325 251.025 268.33 262.746C268.364 289.067 268.364 315.148 268.33 341.229V361.004C268.33 366.625 268.364 371.697 268.947 376.666C271.209 396.51 279.365 412.172 293.897 424.579C307.468 436.163 324.33 441.817 345.51 441.92C360.007 441.989 374.539 441.989 389.036 441.989C393.354 442.023 397.638 442.023 401.922 442.023Z" fill="#DFFF03"/>
</svg>
