<svg width="1946" height="1232" viewBox="0 0 1946 1232" fill="none" xmlns="http://www.w3.org/2000/svg">
<mask id="path-1-inside-1_260_40" fill="white">
<path d="M675.813 1020.22C717.253 1020.29 758.693 1020.36 800.132 1020.22C849.662 1020.03 889.785 1007.67 922.937 982.441C967.138 948.754 991.476 903.177 995.226 847.031C996.936 821.733 996.541 796.434 996.212 771.929C996.015 759.312 995.818 746.299 995.949 733.617V708.186C995.949 694.506 995.949 680.826 995.956 667.145C1008.31 679.338 1020.65 691.549 1032.98 703.761C1053.11 723.643 1073.17 743.591 1093.36 763.407C1098.17 768.097 1102.84 772.919 1107.51 777.675C1120.79 791.216 1134.48 805.285 1150.66 817.439C1184.86 843.266 1223.14 856.411 1264.38 856.543H1281.22C1293.26 856.543 1305.23 856.477 1317.27 856.675C1326.21 856.873 1333.38 854.231 1338.84 848.814C1347.06 840.69 1347 830.452 1347 827.083C1346.87 747.885 1346.87 668.62 1346.87 589.422V487.501C1346.87 405.66 1346.87 323.885 1347 242.045C1347 238.081 1347 227.645 1338.71 219.322C1330.88 211.33 1320.89 211 1316.94 211H1316.35C1286.95 211.132 1257.54 211.132 1228.14 211.132C1200.19 211.132 1172.3 211.131 1144.34 211.264C1092.31 211.528 1050.22 226.06 1015.55 255.784C978.847 287.226 957.404 328.378 951.813 378.116C950.432 390.072 950.366 401.697 950.366 413.52V451.7C950.366 488.004 950.397 524.309 950.393 560.589C940.851 551.127 931.309 541.665 921.753 532.219C883.734 494.502 844.465 455.464 805.525 417.351C771.519 383.862 729.619 366.953 681.207 366.953H631.151C608.656 366.953 598.132 377.39 598.132 399.716C598.066 456.852 598 513.989 598 571.191C598 709.309 598.066 847.428 598.132 985.546C598.132 1009.79 608.459 1020.16 632.533 1020.16L675.813 1020.22ZM1264.45 810.239C1232.94 810.173 1204.72 800.463 1178.28 780.449C1164.93 770.343 1152.96 758.123 1140.33 745.242C1135.4 740.222 1130.53 735.202 1125.53 730.314C1105.4 710.564 1085.34 690.682 1065.28 670.866C1042.32 648.144 1019.43 625.487 996.41 602.896C996.476 552.167 996.476 501.9 996.41 451.634V413.52C996.41 402.688 996.476 392.912 997.594 383.334C1001.94 345.089 1017.59 314.903 1045.48 290.991C1071.53 268.665 1103.89 257.765 1144.54 257.567C1172.36 257.435 1200.25 257.435 1228.08 257.435C1236.36 257.369 1244.59 257.37 1252.81 257.37C1268.86 257.37 1284.97 257.37 1301.02 257.304C1300.89 334.256 1300.89 410.878 1300.89 487.434V589.355C1300.89 663.005 1300.89 736.589 1300.96 810.239H1264.45ZM799.803 973.986C758.429 974.184 717.056 974.118 675.748 973.986L644.175 973.921C644.109 839.7 644.044 705.412 644.044 571.125C644.044 518.48 644.109 465.835 644.109 413.19H681.142C717.713 413.19 747.839 425.344 773.36 450.379C812.169 488.426 851.438 527.331 889.325 565.048C909.519 585.062 929.646 605.076 949.84 625.091C949.774 652.833 949.773 680.51 949.773 708.186V733.287C949.642 746.498 949.84 759.708 950.037 772.589C950.366 797.227 950.76 820.478 949.182 843.927C946.353 886.729 928.593 920.021 894.981 945.584C869.789 964.805 839.532 973.788 799.803 973.986Z"/>
</mask>
<path d="M675.813 1020.22C717.253 1020.29 758.693 1020.36 800.132 1020.22C849.662 1020.03 889.785 1007.67 922.937 982.441C967.138 948.754 991.476 903.177 995.226 847.031C996.936 821.733 996.541 796.434 996.212 771.929C996.015 759.312 995.818 746.299 995.949 733.617V708.186C995.949 694.506 995.949 680.826 995.956 667.145C1008.31 679.338 1020.65 691.549 1032.98 703.761C1053.11 723.643 1073.17 743.591 1093.36 763.407C1098.17 768.097 1102.84 772.919 1107.51 777.675C1120.79 791.216 1134.48 805.285 1150.66 817.439C1184.86 843.266 1223.14 856.411 1264.38 856.543H1281.22C1293.26 856.543 1305.23 856.477 1317.27 856.675C1326.21 856.873 1333.38 854.231 1338.84 848.814C1347.06 840.69 1347 830.452 1347 827.083C1346.87 747.885 1346.87 668.62 1346.87 589.422V487.501C1346.87 405.66 1346.87 323.885 1347 242.045C1347 238.081 1347 227.645 1338.71 219.322C1330.88 211.33 1320.89 211 1316.94 211H1316.35C1286.95 211.132 1257.54 211.132 1228.14 211.132C1200.19 211.132 1172.3 211.131 1144.34 211.264C1092.31 211.528 1050.22 226.06 1015.55 255.784C978.847 287.226 957.404 328.378 951.813 378.116C950.432 390.072 950.366 401.697 950.366 413.52V451.7C950.366 488.004 950.397 524.309 950.393 560.589C940.851 551.127 931.309 541.665 921.753 532.219C883.734 494.502 844.465 455.464 805.525 417.351C771.519 383.862 729.619 366.953 681.207 366.953H631.151C608.656 366.953 598.132 377.39 598.132 399.716C598.066 456.852 598 513.989 598 571.191C598 709.309 598.066 847.428 598.132 985.546C598.132 1009.79 608.459 1020.16 632.533 1020.16L675.813 1020.22ZM1264.45 810.239C1232.94 810.173 1204.72 800.463 1178.28 780.449C1164.93 770.343 1152.96 758.123 1140.33 745.242C1135.4 740.222 1130.53 735.202 1125.53 730.314C1105.4 710.564 1085.34 690.682 1065.28 670.866C1042.32 648.144 1019.43 625.487 996.41 602.896C996.476 552.167 996.476 501.9 996.41 451.634V413.52C996.41 402.688 996.476 392.912 997.594 383.334C1001.94 345.089 1017.59 314.903 1045.48 290.991C1071.53 268.665 1103.89 257.765 1144.54 257.567C1172.36 257.435 1200.25 257.435 1228.08 257.435C1236.36 257.369 1244.59 257.37 1252.81 257.37C1268.86 257.37 1284.97 257.37 1301.02 257.304C1300.89 334.256 1300.89 410.878 1300.89 487.434V589.355C1300.89 663.005 1300.89 736.589 1300.96 810.239H1264.45ZM799.803 973.986C758.429 974.184 717.056 974.118 675.748 973.986L644.175 973.921C644.109 839.7 644.044 705.412 644.044 571.125C644.044 518.48 644.109 465.835 644.109 413.19H681.142C717.713 413.19 747.839 425.344 773.36 450.379C812.169 488.426 851.438 527.331 889.325 565.048C909.519 585.062 929.646 605.076 949.84 625.091C949.774 652.833 949.773 680.51 949.773 708.186V733.287C949.642 746.498 949.84 759.708 950.037 772.589C950.366 797.227 950.76 820.478 949.182 843.927C946.353 886.729 928.593 920.021 894.981 945.584C869.789 964.805 839.532 973.788 799.803 973.986Z" fill="url(#paint0_linear_260_40)" fill-opacity="0.2"/>
<path d="M675.813 1020.22L675.815 1019.22L675.815 1019.22L675.813 1020.22ZM800.132 1020.22L800.136 1021.22L800.135 1021.22L800.132 1020.22ZM922.937 982.441L923.543 983.237L923.542 983.237L922.937 982.441ZM995.226 847.031L994.228 846.965L994.228 846.964L995.226 847.031ZM996.212 771.929L997.212 771.913L997.212 771.915L996.212 771.929ZM995.949 733.617H996.949L996.949 733.627L995.949 733.617ZM995.956 667.145L994.956 667.145L994.957 664.755L996.658 666.434L995.956 667.145ZM1032.98 703.761L1032.28 704.472L1032.28 704.471L1032.98 703.761ZM1093.36 763.407L1092.67 764.123L1092.66 764.121L1093.36 763.407ZM1107.51 777.675L1108.22 776.974L1108.22 776.974L1107.51 777.675ZM1150.66 817.439L1151.26 816.64L1151.26 816.641L1150.66 817.439ZM1264.38 856.543V857.543L1264.38 857.543L1264.38 856.543ZM1317.27 856.675L1317.29 855.675L1317.29 855.675L1317.27 856.675ZM1338.84 848.814L1338.14 848.104L1338.14 848.103L1338.84 848.814ZM1347 827.083L1348 827.081V827.083H1347ZM1346.87 589.422H1345.87H1346.87ZM1347 242.045L1348 242.045L1348 242.046L1347 242.045ZM1338.71 219.322L1338 220.028L1338 220.022L1338.71 219.322ZM1316.35 211L1316.34 210H1316.35V211ZM1228.14 211.132L1228.14 212.132L1228.14 211.132ZM1144.34 211.264L1144.34 210.264L1144.34 210.264L1144.34 211.264ZM1015.55 255.784L1016.2 256.543L1016.2 256.544L1015.55 255.784ZM951.813 378.116L952.807 378.228L952.807 378.231L951.813 378.116ZM950.366 413.52L949.366 413.52V413.52L950.366 413.52ZM950.366 451.7H949.366H950.366ZM950.393 560.589L951.393 560.589L951.392 562.988L949.688 561.299L950.393 560.589ZM921.753 532.219L921.05 532.93L921.049 532.929L921.753 532.219ZM805.525 417.351L804.826 418.066L804.824 418.064L805.525 417.351ZM631.151 366.953L631.151 365.953H631.151V366.953ZM598.132 399.716L599.132 399.716L599.132 399.717L598.132 399.716ZM598 571.191H597H598ZM598.132 985.546L599.132 985.545V985.546H598.132ZM632.533 1020.16V1019.16L632.535 1019.16L632.533 1020.16ZM1264.45 810.239V811.239L1264.45 811.239L1264.45 810.239ZM1178.28 780.449L1178.89 779.652L1178.89 779.652L1178.28 780.449ZM1140.33 745.242L1141.04 744.541L1141.04 744.542L1140.33 745.242ZM1125.53 730.314L1124.83 731.029L1124.83 731.028L1125.53 730.314ZM1065.28 670.866L1064.58 671.578L1064.57 671.577L1065.28 670.866ZM996.41 602.896L995.71 603.61L995.41 603.316L995.41 602.895L996.41 602.896ZM996.41 451.634L995.41 451.635V451.634H996.41ZM996.41 413.52L995.41 413.52V413.52L996.41 413.52ZM997.594 383.334L998.587 383.447L998.587 383.45L997.594 383.334ZM1045.48 290.991L1044.83 290.232L1044.83 290.232L1045.48 290.991ZM1144.54 257.567L1144.53 256.567L1144.53 256.567L1144.54 257.567ZM1228.08 257.435L1228.08 258.435L1228.08 258.435L1228.08 257.435ZM1252.81 257.37V258.37V257.37ZM1301.02 257.304L1301.02 256.304L1302.02 256.299L1302.02 257.305L1301.02 257.304ZM1300.89 487.434H1301.89H1300.89ZM1300.96 810.239L1301.96 810.238L1301.96 811.239H1300.96V810.239ZM799.803 973.986L799.808 974.986L799.808 974.986L799.803 973.986ZM675.748 973.986L675.75 972.986L675.751 972.986L675.748 973.986ZM644.175 973.921L644.173 974.921L643.175 974.919L643.175 973.921L644.175 973.921ZM644.044 571.125H643.044H644.044ZM644.109 413.19L643.109 413.19L643.109 412.19H644.109V413.19ZM773.36 450.379L772.66 451.093L772.66 451.093L773.36 450.379ZM889.325 565.048L888.621 565.758L888.62 565.756L889.325 565.048ZM949.84 625.091L950.544 624.38L950.841 624.675L950.84 625.093L949.84 625.091ZM949.773 733.287H950.773L950.773 733.297L949.773 733.287ZM950.037 772.589L951.037 772.573L951.037 772.575L950.037 772.589ZM949.182 843.927L948.184 843.861L948.184 843.859L949.182 843.927ZM894.981 945.584L894.375 944.789L894.376 944.788L894.981 945.584ZM675.813 1020.22L675.815 1019.22C717.255 1019.29 758.692 1019.36 800.129 1019.22L800.132 1020.22L800.135 1021.22C758.693 1021.36 717.251 1021.29 675.812 1021.22L675.813 1020.22ZM800.132 1020.22L800.128 1019.22C849.482 1019.03 889.383 1006.72 922.331 981.646L922.937 982.441L923.542 983.237C890.187 1008.62 849.841 1021.03 800.136 1021.22L800.132 1020.22ZM922.937 982.441L922.33 981.646C966.3 948.136 990.498 902.826 994.228 846.965L995.226 847.031L996.223 847.098C992.455 903.527 967.977 949.372 923.543 983.237L922.937 982.441ZM995.226 847.031L994.228 846.964C995.935 821.713 995.541 796.456 995.212 771.942L996.212 771.929L997.212 771.915C997.541 796.412 997.937 821.753 996.223 847.099L995.226 847.031ZM996.212 771.929L995.212 771.944C995.015 759.33 994.818 746.304 994.949 733.607L995.949 733.617L996.949 733.627C996.818 746.295 997.014 759.295 997.212 771.913L996.212 771.929ZM995.949 733.617H994.949V708.186H995.949H996.949V733.617H995.949ZM995.949 708.186H994.949C994.949 694.506 994.949 680.825 994.956 667.145L995.956 667.145L996.956 667.146C996.949 680.826 996.949 694.506 996.949 708.186H995.949ZM995.956 667.145L996.658 666.434C1009.01 678.627 1021.35 690.838 1033.69 703.05L1032.98 703.761L1032.28 704.471C1019.94 692.259 1007.61 680.049 995.254 667.857L995.956 667.145ZM1032.98 703.761L1033.68 703.049C1053.82 722.935 1073.87 742.879 1094.06 762.693L1093.36 763.407L1092.66 764.121C1072.47 744.303 1052.4 724.351 1032.28 704.472L1032.98 703.761ZM1093.36 763.407L1094.06 762.692C1098.87 767.391 1103.56 772.225 1108.22 776.974L1107.51 777.675L1106.79 778.375C1102.12 773.613 1097.46 768.803 1092.67 764.123L1093.36 763.407ZM1107.51 777.675L1108.22 776.974C1121.52 790.526 1135.15 804.539 1151.26 816.64L1150.66 817.439L1150.06 818.239C1133.8 806.032 1120.07 791.905 1106.79 778.375L1107.51 777.675ZM1150.66 817.439L1151.26 816.641C1185.3 842.343 1223.37 855.411 1264.39 855.543L1264.38 856.543L1264.38 857.543C1222.91 857.41 1184.42 844.189 1150.05 818.237L1150.66 817.439ZM1264.38 856.543V855.543H1281.22V856.543V857.543H1264.38V856.543ZM1281.22 856.543V855.543C1293.25 855.543 1305.24 855.477 1317.29 855.675L1317.27 856.675L1317.25 857.675C1305.23 857.477 1293.27 857.543 1281.22 857.543V856.543ZM1317.27 856.675L1317.29 855.675C1326.01 855.868 1332.9 853.301 1338.14 848.104L1338.84 848.814L1339.55 849.524C1333.87 855.161 1326.42 857.878 1317.25 857.674L1317.27 856.675ZM1338.84 848.814L1338.14 848.103C1346.05 840.289 1346 830.435 1346 827.083H1347H1348C1348 830.469 1348.08 841.09 1339.55 849.526L1338.84 848.814ZM1347 827.083L1346 827.085C1345.87 747.885 1345.87 668.62 1345.87 589.422L1346.87 589.422L1347.87 589.422C1347.87 668.62 1347.87 747.884 1348 827.081L1347 827.083ZM1346.87 589.422H1345.87V487.501H1346.87H1347.87V589.422H1346.87ZM1346.87 487.501H1345.87C1345.87 405.66 1345.87 323.885 1346 242.043L1347 242.045L1348 242.046C1347.87 323.886 1347.87 405.66 1347.87 487.501H1346.87ZM1347 242.045L1346 242.045C1346 238.097 1345.98 228.04 1338 220.028L1338.71 219.322L1339.42 218.617C1348.02 227.249 1348 238.065 1348 242.045L1347 242.045ZM1338.71 219.322L1338 220.022C1330.47 212.336 1320.84 212 1316.94 212V211V210C1320.93 210 1331.3 210.323 1339.43 218.622L1338.71 219.322ZM1316.94 211V212H1316.35V211V210H1316.94V211ZM1316.35 211L1316.35 212C1286.95 212.132 1257.54 212.132 1228.14 212.132V211.132V210.132C1257.54 210.132 1286.94 210.132 1316.34 210L1316.35 211ZM1228.14 211.132L1228.14 212.132C1200.19 212.132 1172.3 212.131 1144.35 212.264L1144.34 211.264L1144.34 210.264C1172.29 210.131 1200.19 210.132 1228.14 210.132L1228.14 211.132ZM1144.34 211.264L1144.35 212.264C1092.52 212.527 1050.66 226.995 1016.2 256.543L1015.55 255.784L1014.9 255.025C1049.77 225.125 1092.11 210.529 1144.34 210.264L1144.34 211.264ZM1015.55 255.784L1016.2 256.544C979.698 287.814 958.371 328.731 952.807 378.228L951.813 378.116L950.82 378.004C956.438 328.024 977.997 286.637 1014.9 255.025L1015.55 255.784ZM951.813 378.116L952.807 378.231C951.433 390.122 951.366 401.694 951.366 413.52L950.366 413.52L949.366 413.52C949.366 401.7 949.431 390.021 950.82 378.001L951.813 378.116ZM950.366 413.52H951.366V451.7H950.366H949.366V413.52H950.366ZM950.366 451.7L951.366 451.7C951.366 488.002 951.397 524.31 951.393 560.589L950.393 560.589L949.393 560.589C949.397 524.307 949.366 488.007 949.366 451.7L950.366 451.7ZM950.393 560.589L949.688 561.299C940.147 551.837 930.606 542.376 921.05 532.93L921.753 532.219L922.456 531.507C932.013 540.955 941.555 550.417 951.097 559.879L950.393 560.589ZM921.753 532.219L921.049 532.929C883.029 495.211 843.763 456.176 804.826 418.066L805.525 417.351L806.225 416.637C845.168 454.753 884.44 493.793 922.457 531.509L921.753 532.219ZM805.525 417.351L804.824 418.064C771.008 384.763 729.362 367.953 681.207 367.953V366.953V365.953C729.875 365.953 772.029 382.961 806.227 416.639L805.525 417.351ZM681.207 366.953V367.953H631.151V366.953V365.953H681.207V366.953ZM631.151 366.953L631.151 367.953C620.039 367.953 612.091 370.532 606.91 375.672C601.731 380.81 599.132 388.692 599.132 399.716H598.132H597.132C597.132 388.413 599.795 379.914 605.501 374.252C611.207 368.592 619.768 365.953 631.151 365.953L631.151 366.953ZM598.132 399.716L599.132 399.717C599.066 456.853 599 513.99 599 571.191H598H597C597 513.988 597.066 456.851 597.132 399.715L598.132 399.716ZM598 571.191L599 571.191C599 709.309 599.066 847.427 599.132 985.545L598.132 985.546L597.132 985.546C597.066 847.428 597 709.31 597 571.191L598 571.191ZM598.132 985.546H599.132C599.132 997.552 601.693 1005.89 607.014 1011.24C612.333 1016.59 620.613 1019.16 632.533 1019.16V1020.16V1021.16C620.379 1021.16 611.458 1018.54 605.596 1012.65C599.734 1006.75 597.132 997.781 597.132 985.546H598.132ZM632.533 1020.16L632.535 1019.16L675.815 1019.22L675.813 1020.22L675.812 1021.22L632.532 1021.16L632.533 1020.16ZM1264.45 810.239L1264.45 811.239C1232.71 811.173 1204.29 801.385 1177.68 781.246L1178.28 780.449L1178.89 779.652C1205.16 799.541 1233.17 809.174 1264.45 809.239L1264.45 810.239ZM1178.28 780.449L1177.68 781.246C1164.26 771.088 1152.23 758.812 1139.62 745.942L1140.33 745.242L1141.04 744.542C1153.68 757.433 1165.6 769.598 1178.89 779.652L1178.28 780.449ZM1140.33 745.242L1139.62 745.943C1134.68 740.917 1129.82 735.908 1124.83 731.029L1125.53 730.314L1126.23 729.599C1131.24 734.496 1136.12 739.528 1141.04 744.541L1140.33 745.242ZM1125.53 730.314L1124.83 731.028C1104.7 711.277 1084.64 691.392 1064.58 671.578L1065.28 670.866L1065.98 670.155C1086.04 689.972 1106.1 709.852 1126.23 729.601L1125.53 730.314ZM1065.28 670.866L1064.57 671.577C1041.62 648.854 1018.73 626.199 995.71 603.61L996.41 602.896L997.111 602.183C1020.13 624.775 1043.03 647.433 1065.98 670.155L1065.28 670.866ZM996.41 602.896L995.41 602.895C995.476 552.167 995.476 501.901 995.41 451.635L996.41 451.634L997.41 451.632C997.476 501.9 997.476 552.168 997.41 602.898L996.41 602.896ZM996.41 451.634H995.41V413.52H996.41H997.41V451.634H996.41ZM996.41 413.52L995.41 413.52C995.41 402.693 995.475 392.862 996.6 383.218L997.594 383.334L998.587 383.45C997.477 392.962 997.41 402.682 997.41 413.52L996.41 413.52ZM997.594 383.334L996.6 383.221C1000.97 344.738 1016.74 314.316 1044.83 290.232L1045.48 290.991L1046.13 291.75C1018.44 315.489 1002.9 345.439 998.587 383.447L997.594 383.334ZM1045.48 290.991L1044.83 290.232C1071.09 267.724 1103.69 256.766 1144.53 256.567L1144.54 257.567L1144.54 258.567C1104.08 258.765 1071.97 269.606 1046.13 291.75L1045.48 290.991ZM1144.54 257.567L1144.53 256.567C1172.36 256.435 1200.25 256.435 1228.08 256.435L1228.08 257.435L1228.08 258.435C1200.25 258.435 1172.36 258.435 1144.54 258.567L1144.54 257.567ZM1228.08 257.435L1228.07 256.435C1236.36 256.369 1244.59 256.37 1252.81 256.37V257.37V258.37C1244.58 258.37 1236.37 258.369 1228.08 258.435L1228.08 257.435ZM1252.81 257.37L1252.81 256.37C1268.86 256.37 1284.97 256.37 1301.02 256.304L1301.02 257.304L1301.03 258.304C1284.97 258.37 1268.86 258.37 1252.81 258.37L1252.81 257.37ZM1301.02 257.304L1302.02 257.305C1301.89 334.257 1301.89 410.878 1301.89 487.434L1300.89 487.434L1299.89 487.434C1299.89 410.878 1299.89 334.255 1300.02 257.302L1301.02 257.304ZM1300.89 487.434H1301.89V589.355H1300.89H1299.89V487.434H1300.89ZM1300.89 589.355H1301.89C1301.89 663.005 1301.89 736.589 1301.96 810.238L1300.96 810.239L1299.96 810.24C1299.89 736.59 1299.89 663.005 1299.89 589.355H1300.89ZM1300.96 810.239V811.239H1264.45V810.239V809.239H1300.96V810.239ZM799.803 973.986L799.808 974.986C758.43 975.184 717.053 975.118 675.745 974.986L675.748 973.986L675.751 972.986C717.058 973.118 758.428 973.184 799.798 972.986L799.803 973.986ZM675.748 973.986L675.746 974.986L644.173 974.921L644.175 973.921L644.177 972.921L675.75 972.986L675.748 973.986ZM644.175 973.921L643.175 973.921C643.109 839.7 643.044 705.412 643.044 571.125L644.044 571.125L645.044 571.125C645.044 705.412 645.109 839.699 645.175 973.92L644.175 973.921ZM644.044 571.125H643.044C643.044 544.802 643.06 518.479 643.077 492.157C643.093 465.834 643.109 439.512 643.109 413.19L644.109 413.19L645.109 413.19C645.109 439.513 645.093 465.836 645.077 492.158C645.06 518.481 645.044 544.803 645.044 571.125H644.044ZM644.109 413.19V412.19H681.142V413.19V414.19H644.109V413.19ZM681.142 413.19V412.19C717.969 412.19 748.348 424.443 774.061 449.665L773.36 450.379L772.66 451.093C747.33 426.246 717.458 414.19 681.142 414.19V413.19ZM773.36 450.379L774.06 449.665C812.871 487.714 852.142 526.621 890.031 564.339L889.325 565.048L888.62 565.756C850.733 528.041 811.466 489.137 772.66 451.093L773.36 450.379ZM889.325 565.048L890.029 564.338C900.126 574.345 910.207 584.352 920.287 594.36C930.367 604.367 940.447 614.374 950.544 624.38L949.84 625.091L949.136 625.801C939.039 615.794 928.958 605.786 918.878 595.779C908.798 585.772 898.718 575.765 888.621 565.758L889.325 565.048ZM949.84 625.091L950.84 625.093C950.774 652.834 950.773 680.51 950.773 708.186H949.773H948.773C948.773 680.51 948.774 652.832 948.84 625.088L949.84 625.091ZM949.773 708.186H950.773V733.287H949.773H948.773V708.186H949.773ZM949.773 733.287L950.773 733.297C950.642 746.493 950.84 759.691 951.037 772.573L950.037 772.589L949.037 772.604C948.84 759.725 948.642 746.502 948.773 733.277L949.773 733.287ZM950.037 772.589L951.037 772.575C951.366 797.203 951.761 820.497 950.179 843.994L949.182 843.927L948.184 843.859C949.759 820.459 949.366 797.251 949.037 772.602L950.037 772.589ZM949.182 843.927L950.179 843.993C947.332 887.079 929.433 920.639 895.587 946.38L894.981 945.584L894.376 944.788C927.754 919.403 945.374 886.38 948.184 843.861L949.182 843.927ZM894.981 945.584L895.588 946.379C870.182 965.763 839.697 974.787 799.808 974.986L799.803 973.986L799.798 972.986C839.367 972.789 869.396 963.847 894.375 944.789L894.981 945.584Z" fill="url(#paint1_linear_260_40)" fill-opacity="0.21" mask="url(#path-1-inside-1_260_40)"/>
<defs>
<linearGradient id="paint0_linear_260_40" x1="1148.68" y1="856.686" x2="1148.68" y2="211" gradientUnits="userSpaceOnUse">
<stop stop-color="#D4FD20"/>
<stop offset="1" stop-color="white" stop-opacity="0"/>
</linearGradient>
<linearGradient id="paint1_linear_260_40" x1="972.5" y1="1020.3" x2="972.5" y2="211" gradientUnits="userSpaceOnUse">
<stop stop-color="#D4FD20"/>
<stop offset="1" stop-color="#D4FD20"/>
</linearGradient>
</defs>
</svg>
