<svg width="206" height="42" viewBox="0 0 206 42" fill="none" xmlns="http://www.w3.org/2000/svg">
<path d="M57.131 13.6678C63.4384 13.6678 67.1132 17.1438 67.0824 23.4821C67.0549 29.7621 63.4384 33.2964 57.1858 33.2964H49.3906V13.6678H57.131ZM57.131 29.8753C61.1108 29.8753 62.962 27.606 62.962 23.5095C62.962 19.4165 61.1383 17.0889 57.1036 17.0889H53.5145V29.8718H57.131V29.8753Z" fill="white"/>
<path d="M83.7379 32.9022C83.234 33.3238 81.9999 33.5466 81.0469 33.5466C78.5788 33.5466 77.067 32.0315 77.0088 29.649C76.1963 32.4257 73.8139 33.574 71.8222 33.574C69.2718 33.574 67.6436 32.1994 67.6436 29.8718C67.6436 26.2828 71.5137 24.9938 77.0088 25.4429V23.7906C77.0088 22.0526 76.1689 21.014 74.4858 21.014C72.4393 21.014 71.6269 22.3029 71.6543 24.5174L67.9829 23.3107C68.3189 20.085 70.4785 18.1242 74.5441 18.1242C79.0004 18.1242 80.9921 20.2838 80.9921 23.7872V29.2822C80.9921 30.0124 81.328 30.4032 81.9176 30.4032C82.3118 30.4032 82.898 30.0947 83.2648 29.6182L83.7379 32.9022ZM77.0088 28.7543V27.1569C73.7008 26.8209 71.3732 27.5203 71.3732 29.2034C71.3732 30.1015 72.1582 30.6877 73.4745 30.6877C74.8217 30.6877 76.2238 30.0707 77.0088 28.7543Z" fill="white"/>
<path d="M107.679 23.1462V33.2964H103.669V24.154C103.669 22.3612 102.798 21.4048 101.314 21.4048C99.6887 21.4048 98.5369 22.5257 97.8925 23.9003V33.2929H93.8817V24.154C93.8817 22.3612 93.011 21.4048 91.5267 21.4048C89.871 21.4048 88.7226 22.584 88.0782 23.9552V33.2929H84.04V18.4087H87.0978L87.9376 22.9233C88.6678 20.3147 90.4058 18.1276 93.4601 18.1276C95.9557 18.1276 97.6388 19.6428 97.8616 22.4469C98.674 20.0644 100.357 18.1276 103.244 18.1276C105.941 18.1276 107.679 19.893 107.679 23.1462Z" fill="white"/>
<path d="M123.267 26.7352H112.894C113.089 29.3988 114.21 30.6877 116.37 30.6877C118.135 30.6877 119.256 29.8478 119.678 27.9967L123.239 29.1177C122.595 31.7538 120.014 33.574 116.397 33.574C111.66 33.574 108.996 30.6877 108.996 25.8645C108.996 20.9317 111.996 18.1276 116.315 18.1276C121.416 18.1276 123.517 21.9121 123.267 26.7352ZM112.921 24.5756H119.424C119.229 22.0252 118.162 20.9591 116.284 20.9591C114.546 20.9591 113.23 21.8572 112.921 24.5756Z" fill="white"/>
<path d="M132.526 13.85C138.892 13.85 142.563 17.2985 142.563 23.6642C142.535 29.9168 138.919 33.4785 132.553 33.4785H125.516V13.85H132.526ZM132.553 31.0104C137.208 31.0104 139.618 28.46 139.618 23.6917C139.618 18.9542 137.263 16.3181 132.526 16.3181H128.46V31.0104H132.553Z" fill="white"/>
<path d="M156.963 26.509H146.141C146.309 29.649 147.656 31.4418 150.402 31.4418C152.503 31.4418 153.85 30.4614 154.382 28.3018L156.932 29.1143C156.233 31.8052 153.847 33.5706 150.429 33.5706C145.86 33.5706 143.364 30.626 143.364 25.9434C143.364 21.1477 146.141 18.2887 150.374 18.2887C155.167 18.2956 157.131 21.8847 156.963 26.509ZM146.196 24.8567H154.186C154.018 21.8847 152.729 20.4004 150.344 20.4004C148.047 20.3969 146.477 21.7167 146.196 24.8567Z" fill="white"/>
<path d="M157.744 28.3053L160.295 27.7465C160.349 30.41 162.228 31.5858 164.61 31.5858C166.321 31.5858 167.414 30.8008 167.414 29.6524C167.414 26.0085 158.217 28.4184 158.217 22.5017C158.217 20.0336 160.459 18.2956 163.657 18.2956C167.219 18.2956 169.601 19.9204 169.797 23.2593L167.356 23.9037C167.243 21.1271 165.478 20.3147 163.572 20.3147C161.916 20.3147 160.826 21.0997 160.826 22.248C160.826 26.1182 170.051 23.6501 170.051 29.3988C170.051 31.8086 167.75 33.5775 164.47 33.5775C160.661 33.574 157.97 31.7538 157.744 28.3053Z" fill="white"/>
<path d="M171.312 14.3431C171.312 13.2496 172.043 12.492 173.277 12.492C174.483 12.492 175.21 13.2496 175.21 14.3431C175.21 15.4367 174.48 16.1942 173.277 16.1942C172.043 16.1942 171.312 15.4367 171.312 14.3431ZM171.847 33.2964V18.5767H174.706V33.2964H171.847Z" fill="white"/>
<path d="M186.2 30.0432C189.34 30.0432 190.965 31.2773 190.965 33.3787C190.965 36.2376 187.571 38.0613 182.443 38.0613C178.295 38.0613 175.491 36.9403 175.491 34.9212C175.491 33.3512 177.116 32.3708 179.92 32.0897C178.463 31.8086 177.37 31.0819 177.37 29.7621C177.37 28.4458 178.717 27.4894 181.127 27.2392C178.381 26.7078 176.698 25.0521 176.698 22.8377C176.698 20.1193 179.334 18.2956 183.259 18.2956C183.958 18.2956 184.634 18.3504 185.278 18.4636C186.821 17.4832 186.762 15.6869 185.672 13.8941H188.589C189.656 16.3896 188.535 17.9597 186.012 18.6315C188.422 19.276 189.909 20.7912 189.909 22.8377C189.909 25.6417 187.273 27.4928 183.238 27.4928C180.997 27.4928 179.845 27.9145 179.845 28.7817C179.845 29.5942 180.966 30.0432 182.731 30.0432H186.2ZM188.469 33.8003C188.469 32.9604 187.657 32.3983 185.779 32.3983H182.416C179.529 32.3983 178.182 33.1284 178.182 34.2219C178.182 35.4286 179.893 36.073 182.779 36.073C186.228 36.0696 188.469 35.2023 188.469 33.8003ZM183.256 25.6417C185.779 25.6417 187.04 24.7162 187.04 22.8651C187.04 21.0722 185.779 20.1467 183.256 20.1467C180.787 20.1467 179.526 21.0722 179.526 22.8651C179.526 24.7162 180.787 25.6417 183.256 25.6417Z" fill="white"/>
<path d="M205.095 23.3141V33.2964H202.236V24.0134C202.236 21.8264 201.03 20.678 199.179 20.678C197.187 20.678 195.73 21.9944 194.89 23.7906V33.2964H192.031V18.5767H194.191L194.78 22.7245C195.733 20.2564 197.639 18.2956 200.529 18.2956C203.275 18.2956 205.095 20.061 205.095 23.3141Z" fill="white"/>
<path d="M4.33638 33.9066H1.7277C0.555331 33.9066 0.00685594 33.3649 0.00685594 32.2063C0.00342797 29.2411 0 26.2759 0 23.3073C0 16.1394 0.00342797 8.97152 0.00685594 1.80364C0.00685594 0.545577 0.545047 0.00738624 1.79968 0.00738624L4.05529 0.00395828C6.21491 0.000530308 8.37453 -0.00289766 10.5341 0.00395828C13.1154 0.0142422 15.2065 0.655272 16.9342 1.96476C19.2378 3.71302 20.5061 6.07832 20.7015 8.99209C20.7906 10.305 20.7701 11.6179 20.7529 12.8897C20.7426 13.5444 20.7324 14.2197 20.7392 14.8779V16.1977C20.7392 17.6991 20.7392 19.2006 20.7426 20.702C20.7461 21.2368 20.5507 21.703 20.1599 22.0869C19.0629 23.1667 17.9694 24.25 16.8725 25.3298C14.8911 27.2872 12.8446 29.3131 10.8152 31.291C9.04298 33.029 6.85936 33.9066 4.33638 33.9066ZM2.40301 31.507H4.33295C6.2389 31.507 7.80891 30.8762 9.13896 29.577C11.1615 27.6025 13.208 25.5835 15.1825 23.6261C16.2349 22.5874 17.2838 21.5487 18.3362 20.5101C18.3328 19.0703 18.3328 17.634 18.3328 16.1977V14.8951C18.3259 14.2095 18.3362 13.5239 18.3465 12.8554C18.3636 11.5768 18.3842 10.3701 18.3019 9.15321C18.1545 6.93188 17.229 5.20419 15.4773 3.87756C14.1644 2.88002 12.5875 2.41382 10.517 2.40354C8.36081 2.39325 6.20462 2.39668 4.05186 2.40354L2.40643 2.40696C2.40301 9.37259 2.39958 16.3417 2.39958 23.3107C2.39958 26.0428 2.40301 28.7749 2.40301 31.507Z" fill="#DFFF03"/>
<path d="M37.4673 42C37.4571 42 37.4468 42 37.4365 42C35.9042 41.9931 34.3719 41.9931 32.8396 41.9931C31.3827 41.9931 29.9292 41.9931 28.4724 41.9863C25.7608 41.9726 23.5669 41.2184 21.7604 39.6758C19.8476 38.0441 18.7301 35.9085 18.4387 33.3272C18.3667 32.7068 18.3633 32.1034 18.3633 31.4898V29.5085C18.3633 26.8689 18.3667 24.2294 18.3633 21.5933C18.3633 20.9591 18.5792 20.4415 19.0215 20.0096C20.2418 18.8201 21.4553 17.6237 22.6688 16.4273C23.7178 15.3955 24.7633 14.3603 25.8157 13.3319C26.0659 13.0885 26.3093 12.8383 26.5527 12.5915C27.2451 11.8887 27.9582 11.1586 28.8014 10.5278C30.584 9.18748 32.5791 8.50532 34.7284 8.49846C35.0198 8.49846 35.3146 8.49846 35.606 8.49846C36.2333 8.49846 36.8572 8.50189 37.4845 8.4916C37.9507 8.48132 38.3243 8.61844 38.6089 8.89953C39.0374 9.32117 39.0339 9.85251 39.0339 10.0273C39.0271 14.1375 39.0271 18.251 39.0271 22.3612V27.6505C39.0271 31.8978 39.0271 36.1416 39.0339 40.3888C39.0339 40.5945 39.0339 41.1361 38.602 41.5681C38.1941 41.9829 37.673 42 37.4673 42ZM34.1251 39.5936C34.9615 39.5936 35.8014 39.5936 36.6378 39.597C36.6309 35.6034 36.6309 31.627 36.6309 27.6539V25.2441V22.3646C36.6309 18.5424 36.6309 14.7237 36.6344 10.9015C36.2916 10.9015 35.9453 10.9015 35.5991 10.9015C35.3112 10.9015 35.0232 10.9015 34.7318 10.9015C33.0898 10.9049 31.6192 11.4088 30.2412 12.4475C29.5453 12.972 28.9214 13.6061 28.2633 14.2746C28.0062 14.5351 27.7525 14.7956 27.492 15.0493C26.443 16.0743 25.3975 17.1061 24.3519 18.1345C23.1556 19.3137 21.9626 20.4895 20.7629 21.6619C20.7663 24.2945 20.7663 26.9032 20.7629 29.5119V31.4898C20.7629 32.052 20.7663 32.5594 20.8246 33.0564C21.0508 35.0412 21.8667 36.6078 23.3201 37.8487C24.6776 39.0074 26.3642 39.573 28.4826 39.5833C29.9327 39.5901 31.3861 39.5901 32.8362 39.5901C33.2681 39.5936 33.6966 39.5936 34.1251 39.5936Z" fill="#DFFF03"/>
</svg>
